<svg xmlns="http://www.w3.org/2000/svg" xmlns:xlink="http://www.w3.org/1999/xlink" width="210" zoomAndPan="magnify" viewBox="0 0 157.5 44.999999" height="60" preserveAspectRatio="xMidYMid meet" version="1.0"><defs><g/><clipPath id="29aeaf1712"><path d="M 1 0.0703125 L 33 0.0703125 L 33 39 L 1 39 Z M 1 0.0703125 " clip-rule="nonzero"/></clipPath></defs><g fill="#000000" fill-opacity="1"><g transform="translate(20.292189, 30.023918)"><g><path d="M 10.15625 0.328125 C 8.34375 0.328125 6.765625 -0.0507812 5.421875 -0.8125 C 4.085938 -1.570312 3.0625 -2.601562 2.34375 -3.90625 C 1.632812 -5.207031 1.28125 -6.679688 1.28125 -8.328125 C 1.28125 -10.253906 1.671875 -11.894531 2.453125 -13.25 C 3.234375 -14.601562 4.253906 -15.640625 5.515625 -16.359375 C 6.773438 -17.085938 8.109375 -17.453125 9.515625 -17.453125 C 10.597656 -17.453125 11.625 -17.226562 12.59375 -16.78125 C 13.570312 -16.332031 14.429688 -15.71875 15.171875 -14.9375 C 15.921875 -14.164062 16.515625 -13.265625 16.953125 -12.234375 C 17.398438 -11.210938 17.625 -10.125 17.625 -8.96875 C 17.59375 -8.457031 17.382812 -8.039062 17 -7.71875 C 16.625 -7.394531 16.175781 -7.234375 15.65625 -7.234375 L 3.421875 -7.234375 L 2.46875 -10.4375 L 14.21875 -10.4375 L 13.515625 -9.796875 L 13.515625 -10.671875 C 13.472656 -11.285156 13.253906 -11.835938 12.859375 -12.328125 C 12.460938 -12.816406 11.96875 -13.207031 11.375 -13.5 C 10.789062 -13.789062 10.171875 -13.9375 9.515625 -13.9375 C 8.867188 -13.9375 8.269531 -13.847656 7.71875 -13.671875 C 7.164062 -13.503906 6.6875 -13.21875 6.28125 -12.8125 C 5.875 -12.40625 5.550781 -11.859375 5.3125 -11.171875 C 5.082031 -10.492188 4.96875 -9.628906 4.96875 -8.578125 C 4.96875 -7.429688 5.207031 -6.457031 5.6875 -5.65625 C 6.164062 -4.851562 6.785156 -4.242188 7.546875 -3.828125 C 8.304688 -3.410156 9.113281 -3.203125 9.96875 -3.203125 C 10.75 -3.203125 11.375 -3.265625 11.84375 -3.390625 C 12.320312 -3.523438 12.703125 -3.679688 12.984375 -3.859375 C 13.273438 -4.035156 13.539062 -4.191406 13.78125 -4.328125 C 14.15625 -4.515625 14.515625 -4.609375 14.859375 -4.609375 C 15.328125 -4.609375 15.71875 -4.445312 16.03125 -4.125 C 16.34375 -3.8125 16.5 -3.441406 16.5 -3.015625 C 16.5 -2.429688 16.195312 -1.90625 15.59375 -1.4375 C 15.039062 -0.96875 14.257812 -0.554688 13.25 -0.203125 C 12.25 0.148438 11.21875 0.328125 10.15625 0.328125 Z M 10.15625 0.328125 "/></g></g></g><g fill="#000000" fill-opacity="1"><g transform="translate(36.519953, 30.023918)"><g><path d="M 9.703125 -17.453125 C 10.921875 -17.453125 11.984375 -17.320312 12.890625 -17.0625 C 13.796875 -16.8125 14.5 -16.457031 15 -16 C 15.507812 -15.539062 15.765625 -14.988281 15.765625 -14.34375 C 15.765625 -13.914062 15.632812 -13.515625 15.375 -13.140625 C 15.113281 -12.773438 14.738281 -12.59375 14.25 -12.59375 C 13.90625 -12.59375 13.617188 -12.640625 13.390625 -12.734375 C 13.171875 -12.828125 12.976562 -12.945312 12.8125 -13.09375 C 12.644531 -13.25 12.441406 -13.390625 12.203125 -13.515625 C 11.992188 -13.640625 11.671875 -13.738281 11.234375 -13.8125 C 10.796875 -13.894531 10.46875 -13.9375 10.25 -13.9375 C 9.15625 -13.9375 8.226562 -13.703125 7.46875 -13.234375 C 6.71875 -12.765625 6.140625 -12.128906 5.734375 -11.328125 C 5.328125 -10.523438 5.125 -9.597656 5.125 -8.546875 C 5.125 -7.523438 5.332031 -6.613281 5.75 -5.8125 C 6.164062 -5.007812 6.738281 -4.375 7.46875 -3.90625 C 8.207031 -3.4375 9.0625 -3.203125 10.03125 -3.203125 C 10.5625 -3.203125 11.019531 -3.234375 11.40625 -3.296875 C 11.789062 -3.359375 12.109375 -3.457031 12.359375 -3.59375 C 12.660156 -3.757812 12.925781 -3.9375 13.15625 -4.125 C 13.394531 -4.320312 13.75 -4.421875 14.21875 -4.421875 C 14.78125 -4.421875 15.207031 -4.242188 15.5 -3.890625 C 15.800781 -3.535156 15.953125 -3.101562 15.953125 -2.59375 C 15.953125 -2.0625 15.648438 -1.578125 15.046875 -1.140625 C 14.453125 -0.703125 13.671875 -0.347656 12.703125 -0.078125 C 11.734375 0.191406 10.679688 0.328125 9.546875 0.328125 C 7.859375 0.328125 6.394531 -0.0625 5.15625 -0.84375 C 3.914062 -1.625 2.957031 -2.6875 2.28125 -4.03125 C 1.613281 -5.375 1.28125 -6.878906 1.28125 -8.546875 C 1.28125 -10.296875 1.632812 -11.835938 2.34375 -13.171875 C 3.0625 -14.515625 4.054688 -15.5625 5.328125 -16.3125 C 6.597656 -17.070312 8.054688 -17.453125 9.703125 -17.453125 Z M 9.703125 -17.453125 "/></g></g></g><g fill="#000000" fill-opacity="1"><g transform="translate(50.506977, 30.023918)"><g><path d="M 11.078125 -17.453125 C 12.617188 -17.453125 13.789062 -17.117188 14.59375 -16.453125 C 15.394531 -15.796875 15.941406 -14.914062 16.234375 -13.8125 C 16.535156 -12.71875 16.6875 -11.5 16.6875 -10.15625 L 16.6875 -1.953125 C 16.6875 -1.398438 16.503906 -0.9375 16.140625 -0.5625 C 15.773438 -0.1875 15.316406 0 14.765625 0 C 14.210938 0 13.753906 -0.1875 13.390625 -0.5625 C 13.023438 -0.9375 12.84375 -1.398438 12.84375 -1.953125 L 12.84375 -10.15625 C 12.84375 -10.863281 12.753906 -11.5 12.578125 -12.0625 C 12.410156 -12.625 12.101562 -13.078125 11.65625 -13.421875 C 11.207031 -13.765625 10.566406 -13.9375 9.734375 -13.9375 C 8.921875 -13.9375 8.226562 -13.765625 7.65625 -13.421875 C 7.082031 -13.078125 6.648438 -12.625 6.359375 -12.0625 C 6.066406 -11.5 5.921875 -10.863281 5.921875 -10.15625 L 5.921875 -1.953125 C 5.921875 -1.398438 5.738281 -0.9375 5.375 -0.5625 C 5.019531 -0.1875 4.5625 0 4 0 C 3.445312 0 2.988281 -0.1875 2.625 -0.5625 C 2.257812 -0.9375 2.078125 -1.398438 2.078125 -1.953125 L 2.078125 -21.75 C 2.078125 -22.300781 2.257812 -22.765625 2.625 -23.140625 C 2.988281 -23.515625 3.445312 -23.703125 4 -23.703125 C 4.5625 -23.703125 5.019531 -23.515625 5.375 -23.140625 C 5.738281 -22.765625 5.921875 -22.300781 5.921875 -21.75 L 5.921875 -13.8125 L 5.453125 -13.90625 C 5.640625 -14.269531 5.90625 -14.660156 6.25 -15.078125 C 6.59375 -15.492188 7.007812 -15.878906 7.5 -16.234375 C 7.988281 -16.597656 8.53125 -16.890625 9.125 -17.109375 C 9.726562 -17.335938 10.378906 -17.453125 11.078125 -17.453125 Z M 11.078125 -17.453125 "/></g></g></g><g fill="#ffffff" fill-opacity="1"><g transform="translate(66.625428, 30.023918)"><g><path d="M 4.453125 -22.421875 C 4.960938 -22.421875 5.414062 -22.234375 5.8125 -21.859375 C 6.207031 -21.484375 6.40625 -21.019531 6.40625 -20.46875 L 6.40625 -1.953125 C 6.40625 -1.398438 6.203125 -0.9375 5.796875 -0.5625 C 5.390625 -0.1875 4.921875 0 4.390625 0 C 3.785156 0 3.300781 -0.1875 2.9375 -0.5625 C 2.582031 -0.9375 2.40625 -1.398438 2.40625 -1.953125 L 2.40625 -20.46875 C 2.40625 -21.019531 2.597656 -21.484375 2.984375 -21.859375 C 3.367188 -22.234375 3.859375 -22.421875 4.453125 -22.421875 Z M 18.640625 -22.421875 C 19.242188 -22.421875 19.722656 -22.234375 20.078125 -21.859375 C 20.441406 -21.484375 20.625 -21.019531 20.625 -20.46875 L 20.625 -1.953125 C 20.625 -1.398438 20.4375 -0.9375 20.0625 -0.5625 C 19.6875 -0.1875 19.191406 0 18.578125 0 C 18.066406 0 17.613281 -0.1875 17.21875 -0.5625 C 16.820312 -0.9375 16.625 -1.398438 16.625 -1.953125 L 16.625 -20.46875 C 16.625 -21.019531 16.828125 -21.484375 17.234375 -21.859375 C 17.640625 -22.234375 18.109375 -22.421875 18.640625 -22.421875 Z M 4.359375 -13.09375 L 18.640625 -13.09375 L 18.640625 -9.421875 L 4.359375 -9.421875 Z M 4.359375 -13.09375 "/></g></g></g><g fill="#ffffff" fill-opacity="1"><g transform="translate(86.982573, 30.023918)"><g><path d="M 16.109375 -17.453125 C 16.660156 -17.453125 17.117188 -17.269531 17.484375 -16.90625 C 17.847656 -16.550781 18.03125 -16.082031 18.03125 -15.5 L 18.03125 -1.953125 C 18.03125 -1.398438 17.847656 -0.9375 17.484375 -0.5625 C 17.117188 -0.1875 16.660156 0 16.109375 0 C 15.554688 0 15.097656 -0.1875 14.734375 -0.5625 C 14.367188 -0.9375 14.1875 -1.398438 14.1875 -1.953125 L 14.1875 -3.53125 L 14.890625 -3.234375 C 14.890625 -2.953125 14.738281 -2.613281 14.4375 -2.21875 C 14.144531 -1.832031 13.738281 -1.445312 13.21875 -1.0625 C 12.707031 -0.675781 12.101562 -0.347656 11.40625 -0.078125 C 10.71875 0.191406 9.96875 0.328125 9.15625 0.328125 C 7.6875 0.328125 6.351562 -0.0507812 5.15625 -0.8125 C 3.957031 -1.570312 3.007812 -2.617188 2.3125 -3.953125 C 1.625 -5.285156 1.28125 -6.816406 1.28125 -8.546875 C 1.28125 -10.296875 1.625 -11.835938 2.3125 -13.171875 C 3.007812 -14.515625 3.945312 -15.5625 5.125 -16.3125 C 6.300781 -17.070312 7.601562 -17.453125 9.03125 -17.453125 C 9.945312 -17.453125 10.789062 -17.3125 11.5625 -17.03125 C 12.332031 -16.757812 13 -16.410156 13.5625 -15.984375 C 14.132812 -15.554688 14.570312 -15.125 14.875 -14.6875 C 15.1875 -14.25 15.34375 -13.878906 15.34375 -13.578125 L 14.1875 -13.171875 L 14.1875 -15.5 C 14.1875 -16.0625 14.367188 -16.523438 14.734375 -16.890625 C 15.097656 -17.265625 15.554688 -17.453125 16.109375 -17.453125 Z M 9.640625 -3.203125 C 10.578125 -3.203125 11.398438 -3.4375 12.109375 -3.90625 C 12.816406 -4.375 13.363281 -5.015625 13.75 -5.828125 C 14.144531 -6.640625 14.34375 -7.546875 14.34375 -8.546875 C 14.34375 -9.578125 14.144531 -10.5 13.75 -11.3125 C 13.363281 -12.125 12.816406 -12.765625 12.109375 -13.234375 C 11.398438 -13.703125 10.578125 -13.9375 9.640625 -13.9375 C 8.722656 -13.9375 7.910156 -13.703125 7.203125 -13.234375 C 6.503906 -12.765625 5.957031 -12.125 5.5625 -11.3125 C 5.164062 -10.5 4.96875 -9.578125 4.96875 -8.546875 C 4.96875 -7.546875 5.164062 -6.640625 5.5625 -5.828125 C 5.957031 -5.015625 6.503906 -4.375 7.203125 -3.90625 C 7.910156 -3.4375 8.722656 -3.203125 9.640625 -3.203125 Z M 9.640625 -3.203125 "/></g></g></g><g fill="#ffffff" fill-opacity="1"><g transform="translate(104.426748, 30.023918)"><g><path d="M 6.25 -1.953125 C 6.25 -1.398438 6.0625 -0.9375 5.6875 -0.5625 C 5.3125 -0.1875 4.847656 0 4.296875 0 C 3.753906 0 3.300781 -0.1875 2.9375 -0.5625 C 2.582031 -0.9375 2.40625 -1.398438 2.40625 -1.953125 L 2.40625 -21.75 C 2.40625 -22.300781 2.59375 -22.765625 2.96875 -23.140625 C 3.34375 -23.515625 3.804688 -23.703125 4.359375 -23.703125 C 4.910156 -23.703125 5.363281 -23.515625 5.71875 -23.140625 C 6.070312 -22.765625 6.25 -22.300781 6.25 -21.75 Z M 6.25 -1.953125 "/></g></g></g><g fill="#ffffff" fill-opacity="1"><g transform="translate(110.411124, 30.023918)"><g><path d="M 18.703125 -8.546875 C 18.703125 -6.796875 18.3125 -5.253906 17.53125 -3.921875 C 16.757812 -2.585938 15.710938 -1.546875 14.390625 -0.796875 C 13.078125 -0.046875 11.613281 0.328125 10 0.328125 C 8.375 0.328125 6.90625 -0.046875 5.59375 -0.796875 C 4.28125 -1.546875 3.234375 -2.585938 2.453125 -3.921875 C 1.671875 -5.253906 1.28125 -6.796875 1.28125 -8.546875 C 1.28125 -10.296875 1.671875 -11.835938 2.453125 -13.171875 C 3.234375 -14.515625 4.28125 -15.5625 5.59375 -16.3125 C 6.90625 -17.070312 8.375 -17.453125 10 -17.453125 C 11.613281 -17.453125 13.078125 -17.070312 14.390625 -16.3125 C 15.710938 -15.5625 16.757812 -14.515625 17.53125 -13.171875 C 18.3125 -11.835938 18.703125 -10.296875 18.703125 -8.546875 Z M 14.859375 -8.546875 C 14.859375 -9.640625 14.640625 -10.585938 14.203125 -11.390625 C 13.765625 -12.191406 13.175781 -12.816406 12.4375 -13.265625 C 11.707031 -13.710938 10.894531 -13.9375 10 -13.9375 C 9.101562 -13.9375 8.285156 -13.710938 7.546875 -13.265625 C 6.804688 -12.816406 6.21875 -12.191406 5.78125 -11.390625 C 5.34375 -10.585938 5.125 -9.640625 5.125 -8.546875 C 5.125 -7.484375 5.34375 -6.550781 5.78125 -5.75 C 6.21875 -4.945312 6.804688 -4.320312 7.546875 -3.875 C 8.285156 -3.425781 9.101562 -3.203125 10 -3.203125 C 10.894531 -3.203125 11.707031 -3.425781 12.4375 -3.875 C 13.175781 -4.320312 13.765625 -4.945312 14.203125 -5.75 C 14.640625 -6.550781 14.859375 -7.484375 14.859375 -8.546875 Z M 14.859375 -8.546875 "/></g></g></g><g clip-path="url(#29aeaf1712)"><g fill="#000000" fill-opacity="1"><g transform="translate(-0.368059, 38.136108)"><g><path d="M 17 0 C 15.976562 0 15.140625 -0.316406 14.484375 -0.953125 C 13.835938 -1.585938 13.515625 -2.378906 13.515625 -3.328125 L 13.515625 -34.921875 L 20.59375 -34.921875 L 20.59375 -3.328125 C 20.59375 -2.378906 20.253906 -1.585938 19.578125 -0.953125 C 18.910156 -0.316406 18.050781 0 17 0 Z M 4.953125 -31.859375 C 4.015625 -31.859375 3.226562 -32.148438 2.59375 -32.734375 C 1.957031 -33.316406 1.640625 -34.078125 1.640625 -35.015625 C 1.640625 -35.960938 1.957031 -36.71875 2.59375 -37.28125 C 3.226562 -37.84375 4.015625 -38.125 4.953125 -38.125 L 29.140625 -38.125 C 30.085938 -38.125 30.878906 -37.832031 31.515625 -37.25 C 32.148438 -36.675781 32.46875 -35.914062 32.46875 -34.96875 C 32.46875 -34.019531 32.148438 -33.265625 31.515625 -32.703125 C 30.878906 -32.140625 30.085938 -31.859375 29.140625 -31.859375 Z M 4.953125 -31.859375 "/></g></g></g></g><path stroke-linecap="round" transform="matrix(0.747627, 0, 0, 0.747627, 21.621427, 35.164267)" fill="none" stroke-linejoin="miter" d="M 2.000678 2.000851 L 141.765896 2.000851 " stroke="#000000" stroke-width="4" stroke-opacity="1" stroke-miterlimit="4"/></svg>